<?xml version="1.0" standalone="no"?>
<!DOCTYPE svg PUBLIC "-//W3C//DTD SVG 20010904//EN"
 "http://www.w3.org/TR/2001/REC-SVG-20010904/DTD/svg10.dtd">
<svg version="1.0" xmlns="http://www.w3.org/2000/svg"
 width="1080.000000pt" height="1080.000000pt" viewBox="0 0 1080.000000 1080.000000"
 preserveAspectRatio="xMidYMid meet">

<g transform="translate(0.000000,1080.000000) scale(0.100000,-0.100000)"
fill="#000000" stroke="none">
<path d="M0 5400 l0 -5400 5400 0 5400 0 0 5400 0 5400 -5400 0 -5400 0 0
-5400z m7060 965 l0 -1225 -218 0 -218 0 0 585 c1 322 0 585 0 585 -1 0 -181
-204 -582 -660 -51 -58 -97 -105 -102 -105 -5 0 -102 69 -215 153 l-205 154
18 22 c31 40 1057 1208 1272 1449 113 126 211 238 219 248 7 10 17 19 22 19 5
0 9 -528 9 -1225z m-1396 -740 c107 -82 195 -154 195 -159 1 -9 -107 -153
-120 -162 -4 -2 -98 66 -208 152 -136 105 -199 160 -194 168 23 37 119 155
125 153 4 -1 95 -69 202 -152z m1396 -675 l0 -110 -217 2 -218 3 -3 108 -3
107 221 0 220 0 0 -110z m-2550 -665 c133 -148 246 -271 250 -273 7 -3 22 12
358 386 l192 212 0 -445 0 -446 -112 3 -113 3 0 148 c1 81 -2 147 -6 147 -4 0
-75 -79 -160 -175 -142 -162 -154 -174 -170 -159 -10 9 -82 90 -161 180 l-143
165 -3 -246 -2 -246 -113 3 -112 3 -3 535 -2 535 29 -30 c16 -17 138 -151 271
-300z m2148 -67 l2 -327 108 122 108 122 82 3 c50 2 82 -1 82 -7 0 -11 -24
-41 -134 -163 l-69 -78 123 -160 c76 -101 120 -167 116 -176 -5 -12 -22 -14
-83 -12 l-78 3 -100 133 -100 133 -27 -31 c-26 -29 -28 -36 -28 -124 0 -113
-4 -118 -92 -114 l-63 3 -5 255 c-4 224 -7 252 -19 230 -31 -57 -36 -59 -91
-32 -56 27 -93 25 -147 -8 -63 -38 -67 -55 -73 -260 l-5 -185 -70 0 -70 0 0
295 0 295 62 3 62 3 7 -36 c7 -41 14 -43 40 -14 50 57 172 75 253 39 24 -11
45 -20 47 -20 2 0 4 99 4 220 l0 221 78 -3 77 -3 3 -327z m1499 259 c30 -27
38 -69 19 -106 -19 -36 -44 -51 -86 -51 -44 0 -69 16 -86 56 -38 92 78 169
153 101z m-309 -220 l3 -117 82 -1 c45 0 116 -1 157 -2 l75 -2 0 -295 0 -295
-75 0 -75 0 -3 228 -2 227 -80 0 -80 0 -2 -227 -3 -228 -69 -3 c-49 -2 -72 1
-77 10 -5 7 -9 111 -9 231 l0 217 -40 0 c-46 0 -54 15 -48 91 l3 44 43 3 42 3
0 88 c0 99 0 100 75 129 80 32 80 33 83 -101z m-2059 -123 c29 -8 69 -30 91
-50 65 -59 71 -89 68 -329 l-3 -210 -55 0 c-53 0 -55 1 -66 33 -9 28 -12 31
-23 19 -20 -25 -92 -54 -149 -60 -165 -19 -282 71 -270 205 6 56 30 94 79 123
29 17 56 20 188 23 l153 4 -5 36 c-4 24 -17 47 -37 65 -27 24 -38 27 -100 27
-44 0 -91 -7 -125 -19 -59 -21 -60 -21 -89 37 -16 32 -16 35 -1 52 15 17 73
40 130 53 47 11 165 6 214 -9z m1654 0 c57 -19 129 -81 164 -141 18 -32 27
-63 31 -112 7 -101 8 -101 -252 -101 l-209 0 25 -32 c44 -57 74 -73 136 -73
39 0 71 7 101 22 24 12 48 20 53 17 5 -3 23 -24 39 -47 28 -39 28 -41 12 -60
-48 -52 -161 -83 -255 -67 -162 26 -273 150 -272 306 0 170 137 302 315 303
36 1 86 -6 112 -15z m1228 1 c57 -20 102 -65 129 -126 19 -45 20 -64 18 -256
l-3 -208 -70 0 -70 0 -5 193 -5 194 -37 34 c-33 30 -44 34 -93 34 -49 0 -60
-4 -93 -34 l-37 -34 -5 -194 -5 -193 -72 -3 c-55 -2 -73 0 -73 10 0 7 0 137
-1 288 0 151 0 281 0 288 1 9 18 12 63 10 54 -3 63 -6 66 -23 7 -46 11 -49 35
-27 61 57 171 77 258 47z m618 -13 c25 -12 46 -22 48 -22 2 0 3 11 3 25 0 24
2 25 65 25 l65 0 0 -337 c0 -199 -4 -353 -10 -375 -21 -73 -70 -130 -144 -168
-64 -33 -75 -35 -160 -34 -103 0 -156 18 -220 75 -33 28 -76 95 -76 116 0 4
26 21 57 38 53 28 57 28 67 11 57 -95 150 -130 244 -90 72 30 112 89 112 167
0 32 -6 33 -51 10 -22 -12 -64 -19 -120 -21 -101 -5 -150 12 -218 74 -70 62
-94 114 -99 211 -4 78 -2 88 27 148 37 74 92 126 165 155 68 27 181 23 245 -8z
m-3979 -542 l0 -41 -112 3 c-110 3 -113 4 -116 26 -7 49 0 52 118 52 l110 0 0
-40z"/>
<path d="M5556 3771 c-27 -30 -17 -71 23 -98 79 -53 194 -5 217 90 l6 27 -114
0 c-100 0 -117 -2 -132 -19z"/>
<path d="M7244 3981 c-30 -19 -64 -57 -64 -73 0 -5 68 -8 150 -8 104 0 150 3
150 11 0 6 -17 29 -39 50 -37 37 -42 39 -102 39 -45 0 -73 -6 -95 -19z"/>
<path d="M9085 4006 c-65 -28 -114 -120 -101 -189 15 -78 96 -147 175 -147
138 0 224 161 145 272 -16 23 -45 49 -64 59 -40 22 -112 24 -155 5z"/>
</g>
</svg>
